<?xml version="1.0" encoding="utf-8"?>
<!-- Generator: Adobe Illustrator 22.0.1, SVG Export Plug-In . SVG Version: 6.00 Build 0)  -->
<svg version="1.1" id="Слой_1" xmlns="http://www.w3.org/2000/svg" xmlns:xlink="http://www.w3.org/1999/xlink" x="0px" y="0px"
	 viewBox="0 0 264.2 237.1" style="enable-background:new 0 0 264.2 237.1;" xml:space="preserve">
<style type="text/css">
	.st0{fill:none;stroke:#060506;stroke-width:1.6951;stroke-miterlimit:22.9256;}
	.st1{fill:#060506;}
	.st2{fill:none;stroke:#060506;stroke-width:3.729;stroke-miterlimit:22.9256;stroke-dasharray:18.6415,11.1914;}
	.st3{fill:none;stroke:#060506;stroke-width:3.3902;stroke-miterlimit:22.9256;}
	.st4{fill-rule:evenodd;clip-rule:evenodd;fill:#060506;}
	.st5{fill:none;stroke:#FFFFFF;stroke-width:1.6951;stroke-miterlimit:22.9256;}
	.st6{fill:#FFFFFF;}
	.st7{fill:none;stroke:#FFFFFF;stroke-width:3.729;stroke-miterlimit:22.9256;stroke-dasharray:18.6415,11.1914;}
	.st8{fill:none;stroke:#FFFFFF;stroke-width:3.3902;stroke-miterlimit:22.9256;}
	.st9{fill-rule:evenodd;clip-rule:evenodd;fill:#FFFFFF;}
</style>
<g>
	<circle class="st0" cx="134.1" cy="118.6" r="117.7"/>
	<polygon class="st1" points="107.4,175.5 109.2,174.2 110.5,172.5 110.9,170.9 111.9,160.1 111.8,156.8 110.6,154.8 108.9,153.2 
		106.8,153.6 104.7,152.4 103.8,150.6 103.4,145.4 103.8,142.3 103.8,114.5 103.6,112.5 103.4,110 103.8,108.5 103.9,105.6 
		103.8,102.4 103.6,100.4 103.8,96.5 103.6,76.4 102.8,74.4 100.6,73.5 98.6,73.5 96.7,74.2 95.5,76.2 95.8,78 95.4,82.4 95.6,84.5 
		95.3,101.7 95.6,104.4 95.8,111.4 95.5,113.5 95.8,128.4 95.5,130.3 95.6,132.1 95.3,134.2 95.6,136.3 95.5,138.4 95.8,142.4 
		95.6,144.5 95.6,146.6 95.5,148.3 95.5,150.5 94.5,152.2 92.5,153.3 90.4,153.1 88.3,153.4 86.7,153.2 84.5,153.2 82.5,153.1 
		78.4,153.3 76.3,153.1 74.5,153.2 72.4,153.3 70.3,152.7 69.2,150.5 69.3,148.7 69.3,144.2 69.1,142.4 69.3,140.2 69.1,136.7 
		69.2,130.3 69.1,128.6 69.2,126.5 69.1,124.5 69.4,91.9 69.1,89.3 69.3,87.4 69.2,85.2 69.3,81.6 68.8,75.7 67.7,74 63.4,73.5 
		61.5,74.1 60.9,76 60.8,78.1 60.9,80 60.8,81.8 61.2,89.4 61,95.5 61.2,98.4 60.9,103.3 61.2,106.3 60.9,113.3 61.1,115.3 
		61,117.1 61.1,118.9 60.8,124.1 61.1,131.3 60.9,133 61.2,135.3 60.9,139.2 61,147.1 60.8,150.1 61,153.2 60.9,157.2 61.9,159 
		64,160.1 66.2,160.1 68.1,159.9 69.8,160 71.9,160.4 75.9,160.1 78,160.3 79.7,160.4 81.6,160.4 83.8,160.5 85.8,160.1 87.8,160.3 
		89.9,160 92.7,160.5 96.6,160.1 101.5,160.4 103.3,161.1 104.6,163 104.3,165.8 104.4,170.7 104.2,172.2 105.4,174.5 	"/>
	<polygon class="st1" points="153.3,160.5 155.3,159.5 156.2,157.7 156.3,155.8 155.2,153.9 153.1,153.2 151.1,153.3 149.1,153.2 
		147.3,153.4 145.2,153.1 140.9,153.1 138.8,153.3 136.7,152.9 132.7,153.1 130.5,152.1 129.5,149.2 129.4,147 129.8,134.3 
		129.5,132.1 129.8,130.5 129.8,128.4 129.5,126.1 129.6,123.9 129.4,122 130.4,120.3 132.2,118.9 134.4,119.2 138.2,119.1 
		140.3,118.8 142.1,119.1 146.3,118.9 148.1,119.4 151.9,119.1 153.7,117.9 154.7,115.5 153.8,113.3 151.7,112.3 149.7,112.6 
		146.1,112.5 143,112.2 139.3,112.3 136.2,112.2 134.2,112.5 132.5,112.3 130.4,111.6 129.5,109.1 129.6,107.1 129.4,105.4 
		129.6,103.3 129.4,97.3 129.6,95.6 129.4,91.5 129.5,84.4 130.6,81.6 132.7,80.4 136.7,80 140.9,79.8 143,80.3 144.9,80.1 
		147.1,80 149.1,80.2 152,80.4 155.2,79.3 156.4,77.6 156.3,75.7 155.1,74.4 153.3,73.4 151.4,73.2 145.4,73.4 135.3,73 129.4,73.5 
		127.4,73 125.7,73.5 123.6,73 121.7,73.9 120.8,76.1 121.1,77.7 121.2,79.8 121.3,82.1 121.2,83.6 121.2,85.5 121.6,87.2 
		121.2,92.1 121.4,95 121.3,97.2 121.4,101.1 121.4,102.8 121.6,105.3 121.3,110.9 121.6,113 121.2,115.2 121.3,117.4 121.2,119.4 
		121.1,122.9 121.2,125.1 121.6,127.4 121.4,129.4 121.2,131 121.4,133.2 121.2,134.9 121.1,137 121.4,143.1 121.2,157.3 
		122.3,159.3 124.3,160.3 128.1,160.4 132.1,159.9 134,160.1 135.7,159.9 137.7,160.3 141.7,160 143.5,160.3 145.5,159.9 147.5,160 
		151.4,160 	"/>
	<polygon class="st1" points="168.9,160.4 171,160.3 173.1,158.9 175.6,156.2 176.7,153.6 177.3,151.8 178.2,150.3 178.7,148.1 
		180.5,144.4 185,132.7 185.7,129.5 187.2,126.3 187.7,124.5 188.7,122.4 189.3,120.7 190.1,120.8 190.7,122.3 191.3,124.4 
		192.2,126.3 192.6,128 193.4,129.6 194.3,132.7 198.2,142.3 198.9,144.6 199.6,146.4 200.1,148.3 200.9,150.2 201.8,152.1 
		202.4,153.6 203.2,155.5 203.7,157.4 205.6,159.3 208.1,160.3 210.6,160.1 212.1,159 212.6,157.2 210.3,152.1 207.7,144.4 
		206.8,142.5 205.5,138.7 203.7,135.2 203.1,132.8 202.4,131 201.5,129.5 200.5,125.6 199.6,123.9 199.1,121.7 198.3,119.9 
		196.3,113.5 196.7,110.7 197.7,109 198.2,106.9 199.1,105.4 199.6,103.2 200.5,101.5 202.3,97 203.5,94.4 204.1,92.6 204.5,90.5 
		207.3,83.3 208.2,81.8 209,79.8 209.8,78 210.3,76 209.9,74.1 208.3,73.2 206,73.2 203.5,73.9 201.9,75.9 201.3,77.8 200.4,79.7 
		197.5,88.1 196.4,90.6 195.7,92.6 194.8,94.4 192.9,99.7 192.2,101.4 191.7,103.4 190.7,105.1 190.1,107 189.3,106.3 188.2,103.2 
		187.4,101.3 187,99.7 183.6,90.9 182.6,89 181.9,87 181,85.4 179.9,81.4 179,79.8 178.5,78 177.8,76 175.8,74 173.1,73.1 170.8,73 
		169.1,74.1 169.1,76.2 169.5,78.1 170.2,79.7 170.8,81.7 172.2,84.3 173.1,87 175.6,92.6 178.3,100.2 179.2,101.5 179.7,103.8 
		181.6,109.2 182.5,110.9 183,114 182.8,116.3 180.5,122.4 178.9,125.6 178.3,127.5 175.9,133.1 175.4,135.2 174.6,137.2 
		174.2,138.7 170.4,148.3 169.4,149.8 168.7,151.7 168.2,153.7 166.9,157.4 167,159.1 	"/>
	<path class="st1" d="M93.5,55.9l0.4,0.4c-2.7,2.4-5.1,4.6-7.2,6.4c-2,1.8-4.3,3.9-7,6.4l-0.4-0.4l0.5-0.4c0.4-0.4,0.6-0.7,0.5-0.9
		c-0.1-0.2-0.6-0.9-1.6-2l-3.5-3.9c-1.1-1.2-1.7-1.9-2-2c-0.2-0.1-0.6,0-1.1,0.5l-0.4,0.4l-0.4-0.4c0.9-0.8,1.7-1.4,2.2-1.9
		c0.6-0.5,1.1-1,1.6-1.6l0.4,0.4l-0.4,0.4c-0.4,0.3-0.5,0.6-0.5,0.8c0,0.2,0.6,1,1.8,2.3l3.5,3.9c0.6,0.6,1.2,1.3,1.8,1.9
		c0.6-0.5,1.3-1.1,2.2-1.9c0.7-0.6,1.2-1.1,1.6-1.5l-0.9-1.1c-0.2-0.3-0.5-0.7-1-1.1l-3.2-3.6c-1.3-1.4-2-2.1-2.2-2.1
		c-0.2,0-0.5,0.1-0.9,0.5L77,55.6l-0.4-0.4c0.7-0.6,1.3-1.1,1.9-1.7c0.6-0.6,1.2-1.1,1.7-1.6l0.4,0.4l-0.3,0.3
		c-0.4,0.3-0.5,0.6-0.5,0.8c0.1,0.2,0.6,1,1.8,2.2l3.5,3.9c0.6,0.7,1.2,1.3,1.8,1.9c0.6-0.5,1.3-1.1,2-1.7c0.8-0.7,1.4-1.3,1.8-1.7
		l-0.9-1.1c-0.2-0.3-0.5-0.7-1-1.1l-3.2-3.6c-1.3-1.4-2-2.1-2.2-2.1c-0.2,0-0.5,0.1-0.9,0.5L82.1,51l-0.4-0.4c0.7-0.5,1.3-1.1,2-1.8
		c0.7-0.7,1.3-1.2,1.8-1.7l0.4,0.4l-0.5,0.5c-0.4,0.4-0.6,0.7-0.5,0.9c0.1,0.2,0.7,1,1.9,2.3l3.2,3.5c1.1,1.3,1.8,2,2.1,2.1
		c0.2,0.1,0.6,0,1-0.4L93.5,55.9z"/>
	<path class="st1" d="M100.5,52.3c0.5-0.2,1-0.3,1.3-0.4c0.9-0.4,1.6-1,1.8-1.7c0.3-0.7,0.2-1.5-0.2-2.4c-0.3-0.6-0.6-1-1-1.3
		c-0.4-0.3-0.8-0.4-1.3-0.4c-0.5,0-1.2,0.2-2.1,0.6c-0.3,0.1-0.6,0.3-0.9,0.4l1.3,2.8l0.5,1c0.2,0.4,0.3,0.6,0.4,0.8
		C100.4,51.9,100.5,52.1,100.5,52.3 M97.9,46.5c0.3-0.1,0.5-0.2,0.7-0.3c1.1-0.5,1.7-1,2-1.6c0.3-0.6,0.3-1.2-0.1-1.9
		c-0.3-0.6-0.7-1-1.2-1.1c-0.5-0.2-1.2,0-2.1,0.3c-0.4,0.2-0.8,0.4-1.2,0.7c0.2,0.7,0.7,1.7,1.3,3L97.9,46.5z M100.6,45.5
		c1.2-0.4,2.1-0.6,2.8-0.3c0.7,0.2,1.2,0.7,1.6,1.5c0.5,1,0.4,2.1-0.1,3.2c-0.5,1.1-1.4,2-2.7,2.6l-0.6,0.3c-0.5,0.2-1,0.4-1.4,0.6
		c-0.3,0.1-0.6,0.3-1,0.5l-0.6,0.3l-0.2-0.4c0.3-0.3,0.4-0.5,0.4-0.6c0-0.1,0-0.3-0.1-0.5c-0.3-0.6-0.6-1.4-0.9-2.2l-2.3-5
		c-0.6-1.3-1-2.1-1.2-2.2c-0.2-0.2-0.5-0.1-1,0.1L93,43.6l-0.2-0.5l0.7-0.3l0.7-0.3c0.4-0.2,0.7-0.3,0.9-0.4c0.3-0.2,1-0.5,2-0.9
		l1.2-0.6c0.9-0.4,1.7-0.6,2.3-0.5c0.8,0.1,1.3,0.6,1.6,1.3c0.3,0.6,0.3,1.2,0.1,1.9C102,44,101.5,44.7,100.6,45.5z"/>
	<path class="st1" d="M112.6,42.3l0.6,2.1l0.4,1.2c0.2,0.7,0.4,1.3,0.5,1.6c0.8-0.2,1.7-0.4,2.7-0.7c0.6-0.2,1.1-0.4,1.5-0.6
		c0.3-0.1,0.5-0.3,0.8-0.5c0-0.5,0-1.2-0.1-2l0.6-0.2c0.2,1.3,0.4,2.1,0.5,2.5l0.1,0.4c-0.6,0.3-1.2,0.5-1.9,0.7l-1.3,0.4
		c-1.5,0.4-2.5,0.7-3.2,0.9c-0.7,0.2-1.5,0.5-2.6,0.8l-0.2-0.5l0.3-0.1c0.5-0.1,0.8-0.3,0.9-0.4c0.1-0.1,0.1-0.4,0.1-0.7
		c-0.1-0.4-0.3-1.1-0.6-2.3l-1.4-4.6c-0.2-0.8-0.4-1.4-0.6-1.8c-0.2-0.5-0.3-0.7-0.4-0.8c-0.1-0.1-0.2-0.1-0.2-0.2
		c-0.1,0-0.3,0-0.8,0.1l-0.7,0.1l-0.2-0.5l0.9-0.3l0.9-0.2c0.5-0.1,0.9-0.2,1.1-0.3l3.2-1l1.5-0.5c0.5-0.2,1.1-0.3,1.6-0.4
		c0,0.7,0.1,1.6,0.4,2.7l-0.6,0.2c-0.2-0.6-0.4-1.1-0.5-1.5c-0.7-0.1-1.6,0.1-2.5,0.3c-0.8,0.2-1.6,0.5-2.4,0.8
		c0.2,0.5,0.3,1,0.4,1.6l0.4,1.3l0.5,1.7c0.6-0.1,1.1-0.3,1.5-0.4c1.3-0.4,2.1-0.7,2.2-0.8c0.1-0.1,0.2-0.5,0-0.9l-0.2-0.5l0.6-0.2
		c0.2,0.9,0.4,1.5,0.5,2c0.2,0.5,0.4,1.2,0.6,1.9l-0.6,0.2l-0.1-0.5c-0.2-0.5-0.4-0.8-0.6-0.9c-0.2-0.1-1,0.1-2.3,0.5
		C113.5,41.9,113.1,42.1,112.6,42.3"/>
	<path class="st1" d="M129.3,31.6l-0.1-0.3c0.4-0.2,0.7-0.4,1-0.7c0.2-0.2,0.3-0.3,0.5-0.3c1.2,0.6,2.6,1,4.2,1.2l0.1,0.3l-0.8,0.4
		C132.5,32.1,130.8,31.9,129.3,31.6 M129.9,33.5l-0.4,0c-0.7,0-1.1,0.1-1.2,0.3c-0.1,0.2-0.1,1.1-0.1,2.6l0,7.4l1.9-2.7l2.7-3.9
		l2.9-4.3l1.3,0.1c0.2,0,0.8,0,2-0.1v0.6l-0.7,0c-0.6,0-0.9,0.1-1,0.3c-0.1,0.2-0.1,1.2-0.1,2.9l0,4.8c0,1.7,0,2.7,0.1,2.9
		c0.1,0.2,0.4,0.4,1,0.4l0.7,0l0,0.6c-0.7,0-1.6-0.1-2.5-0.1c-1,0-1.9,0-2.7,0.1l0-0.6l0.6,0c0.6,0,0.9-0.1,1-0.4
		c0.1-0.2,0.2-1.2,0.2-3l0-4.8c0-0.5,0-1.3,0.1-2.4l-5.7,8.3c-1.1,1.6-1.7,2.5-1.9,2.6c-0.1,0.1-0.7,0.2-1.6,0.4
		c0.1-1.4,0.1-2.7,0.2-3.8l0-5.4c0-1.5,0-2.4-0.2-2.6c-0.1-0.2-0.4-0.3-1-0.3l-0.6,0v-0.5c0.9,0,1.7,0.1,2.5,0.1c1,0,1.9,0,2.6-0.1
		V33.5z"/>
	<path class="st1" d="M147.7,40.2l-0.5,2.4c-0.1,0.4-0.2,0.9-0.3,1.4c-0.1,0.8-0.2,1.2-0.2,1.3c0,0.1,0.1,0.2,0.2,0.3
		c0.1,0.1,0.3,0.2,0.7,0.3l0.6,0.1l-0.1,0.5c-0.7-0.2-1.4-0.4-2.1-0.6c-0.7-0.2-1.6-0.4-2.9-0.6l0.1-0.5l0.5,0.1
		c0.6,0.1,1,0.1,1.1-0.1c0.2-0.2,0.4-1.1,0.8-2.7l1.2-5.1c0.3-1.5,0.5-2.3,0.4-2.6c-0.1-0.2-0.4-0.4-0.9-0.5l-0.6-0.1l0.1-0.5
		c0.9,0.3,1.8,0.5,2.6,0.7c0.8,0.2,1.6,0.4,2.4,0.5l-0.1,0.5l-0.4-0.1c-0.5-0.1-0.9-0.2-1-0.1c-0.1,0.1-0.3,0.2-0.3,0.4
		c-0.1,0.3-0.3,1.1-0.6,2.3l-0.4,1.9c1,0.3,2.3,0.6,3.8,1c1.3,0.3,2.4,0.5,3.2,0.7l0.4-1.7c0.2-1,0.4-1.8,0.5-2.5
		c0-0.2,0-0.4-0.1-0.6c-0.1-0.1-0.4-0.2-0.8-0.3l-0.6-0.1l0.1-0.5c0.9,0.2,1.7,0.4,2.5,0.6c0.8,0.2,1.7,0.4,2.6,0.5l-0.1,0.5
		l-0.6-0.1c-0.4-0.1-0.7-0.1-0.9,0c-0.1,0.1-0.3,0.2-0.3,0.5c-0.1,0.3-0.3,1.1-0.6,2.4l-1.1,4.7c-0.4,1.7-0.6,2.7-0.5,3
		c0.1,0.2,0.3,0.4,0.9,0.5l0.7,0.2l-0.1,0.5c-0.8-0.2-1.6-0.4-2.4-0.6c-1-0.2-1.8-0.4-2.7-0.6l0.1-0.5l0.6,0.1
		c0.4,0.1,0.7,0.1,0.9,0c0.1-0.1,0.3-0.2,0.4-0.5c0.2-0.6,0.4-1.4,0.7-2.5l0.5-2.2c-0.8-0.2-1.8-0.5-3-0.8
		C150,40.7,148.6,40.4,147.7,40.2"/>
	<path class="st1" d="M170.1,54.2l0.5,0.3c0.5,0.3,0.8,0.3,1,0.1c0.2-0.2,0.9-1.3,2-3.2l1.4-2.6c1.1-2,1.7-3.2,1.7-3.4
		c0-0.3-0.2-0.5-0.6-0.7l-0.6-0.3l0.3-0.5c0.8,0.5,1.7,1,2.5,1.4c0.7,0.4,1.3,0.7,1.9,1l-0.3,0.5l-0.6-0.3c-0.4-0.2-0.6-0.3-0.8-0.2
		c-0.1,0-0.3,0.2-0.5,0.6c-0.3,0.5-0.9,1.5-1.6,2.9l-1.5,2.6c-1.1,2-1.7,3.1-1.7,3.3c0,0.3,0.2,0.5,0.7,0.8l0.5,0.3l-0.3,0.5
		c-0.6-0.4-1.3-0.8-2-1.2c-0.9-0.5-1.7-0.9-2.4-1.2L170.1,54.2z M164.3,50.6c0.4,0.3,0.7,0.5,1.1,0.7c0.9,0.5,1.7,0.6,2.5,0.4
		c0.8-0.2,1.4-0.7,1.8-1.5c0.2-0.4,0.4-0.8,0.4-1.3c0.1-0.5-0.1-0.9-0.3-1.4c-0.3-0.5-0.9-0.9-1.9-1.5c-0.3-0.2-0.6-0.3-0.9-0.5
		l-1.5,2.7C164.8,49.5,164.4,50.2,164.3,50.6z M161.9,49.8l0.3,0c0.3,0,0.5-0.1,0.7-0.2c0.2-0.2,0.6-0.9,1.3-2.2l2.6-4.7
		c0.7-1.3,1.1-2.1,1.1-2.3c0-0.2-0.2-0.5-0.7-0.8l-0.5-0.3l0.3-0.5c0.6,0.4,1.3,0.8,2,1.2c0.9,0.5,1.7,0.9,2.3,1.2l-0.3,0.5
		l-0.3-0.2c-0.6-0.3-1-0.4-1.1-0.3c-0.2,0.1-0.7,0.8-1.4,2.2l-0.8,1.5l1.6,0.9c2.7,1.5,3.6,3.2,2.5,5c-0.6,1-1.5,1.6-2.7,1.8
		c-1.2,0.2-2.4,0-3.6-0.7c-0.1-0.1-0.3-0.2-0.6-0.3c-0.5-0.3-0.9-0.5-1.2-0.7c-0.3-0.2-0.7-0.3-1-0.5c-0.3-0.1-0.5-0.3-0.6-0.3
		L161.9,49.8z"/>
	<path class="st1" d="M190.2,51.7l0.1-0.3c0.4,0.1,0.8,0.1,1.2,0.1c0.2,0,0.4,0,0.6,0c0.5,1.2,1.3,2.4,2.5,3.6l-0.2,0.3l-0.8-0.2
		C192.3,54.2,191.1,53,190.2,51.7 M189.4,53.6l-0.3-0.2c-0.5-0.4-0.9-0.6-1.1-0.5c-0.2,0.1-0.8,0.7-1.8,1.9l-4.8,5.7l3.1-0.8
		l4.6-1.3l5-1.4l1,0.9c0.1,0.1,0.7,0.5,1.6,1.2l-0.4,0.4l-0.5-0.4c-0.4-0.4-0.8-0.5-1-0.4c-0.2,0.1-0.8,0.8-1.9,2.1l-3.1,3.7
		c-1.1,1.3-1.7,2.1-1.8,2.3c-0.1,0.2,0.1,0.5,0.5,0.9l0.5,0.4l-0.4,0.4c-0.5-0.5-1.2-1-1.9-1.7c-0.8-0.6-1.5-1.2-2.1-1.7l0.4-0.4
		l0.5,0.4c0.4,0.4,0.8,0.5,1,0.4c0.2-0.1,0.9-0.8,2.1-2.2l3.1-3.7c0.3-0.4,0.8-0.9,1.6-1.8l-9.7,2.7c-1.9,0.5-2.9,0.8-3.1,0.8
		c-0.2,0-0.7-0.3-1.5-0.7c1-1,1.8-2,2.6-2.8l3.5-4.1c1-1.1,1.5-1.8,1.5-2.1c0.1-0.2-0.1-0.5-0.5-0.9l-0.5-0.4l0.4-0.4
		c0.7,0.6,1.3,1.2,1.9,1.6c0.8,0.7,1.5,1.2,2.1,1.7L189.4,53.6z"/>
	<path class="st1" d="M178.8,177.2l-0.2-0.2c0.2-0.4,0.3-0.8,0.4-1.2c0-0.2,0.1-0.4,0.2-0.6c1.3-0.2,2.7-0.8,4.1-1.7l0.3,0.2
		l-0.4,0.8C181.6,175.7,180.2,176.6,178.8,177.2 M180.5,178.4l-0.3,0.2c-0.5,0.4-0.8,0.7-0.7,0.9c0,0.2,0.5,0.9,1.5,2.1l4.6,5.8
		l-0.2-3.2l-0.3-4.7l-0.4-5.1l1.1-0.8c0.1-0.1,0.7-0.5,1.5-1.3l0.3,0.4l-0.5,0.4c-0.5,0.4-0.6,0.6-0.6,0.9c0.1,0.2,0.6,1,1.7,2.3
		l3,3.8c1.1,1.4,1.7,2.1,1.9,2.2c0.2,0.1,0.5,0,1-0.3l0.5-0.4l0.3,0.4c-0.6,0.4-1.3,0.9-2,1.5c-0.8,0.6-1.5,1.2-2.1,1.7l-0.3-0.4
		l0.5-0.4c0.4-0.3,0.6-0.6,0.6-0.9c-0.1-0.3-0.6-1.1-1.7-2.5l-2.9-3.8c-0.3-0.4-0.8-1-1.4-1.9l0.7,10c0.1,2,0.2,3,0.1,3.2
		c0,0.2-0.4,0.6-1,1.3c-0.8-1.2-1.5-2.2-2.2-3.1l-3.3-4.3c-0.9-1.2-1.5-1.8-1.7-1.9c-0.2-0.1-0.5,0-1,0.3l-0.5,0.4l-0.3-0.4
		c0.7-0.5,1.4-1,2-1.5c0.8-0.6,1.5-1.2,2-1.7L180.5,178.4z M172.6,196.7l0.5-0.2c0.5-0.2,0.7-0.5,0.7-0.8c0-0.3-0.5-1.4-1.4-3.5
		l-1.2-2.7c-1-2.1-1.5-3.3-1.7-3.4c-0.2-0.2-0.5-0.2-0.9,0l-0.6,0.3l-0.2-0.5c0.9-0.4,1.8-0.7,2.6-1.1c0.7-0.3,1.4-0.6,1.9-0.9
		l0.2,0.5l-0.6,0.3c-0.4,0.2-0.6,0.3-0.7,0.5c-0.1,0.1,0,0.4,0.1,0.8c0.2,0.6,0.7,1.6,1.3,3l1.2,2.7c0.9,2.1,1.5,3.2,1.7,3.3
		c0.2,0.2,0.5,0.1,1-0.1l0.5-0.2l0.2,0.5c-0.7,0.3-1.4,0.6-2.2,0.9c-0.9,0.4-1.7,0.8-2.4,1.1L172.6,196.7z M166.2,199.3
		c0.5-0.1,0.9-0.3,1.3-0.4c0.9-0.4,1.6-1,1.8-1.7c0.3-0.7,0.2-1.5-0.1-2.4c-0.2-0.4-0.4-0.8-0.8-1.1c-0.3-0.3-0.8-0.5-1.3-0.6
		c-0.5-0.1-1.3,0.1-2.3,0.6c-0.3,0.1-0.7,0.3-1,0.5l1.3,2.8C165.6,198.2,166,198.9,166.2,199.3z M164.1,200.7l0.2-0.2
		c0.2-0.2,0.3-0.4,0.2-0.7c0-0.2-0.4-1-1-2.4l-2.2-4.9c-0.6-1.4-1-2.1-1.2-2.3c-0.2-0.2-0.5-0.1-1,0.1l-0.5,0.2l-0.2-0.5
		c0.6-0.3,1.4-0.6,2.2-0.9c0.9-0.4,1.7-0.8,2.4-1.1l0.2,0.5l-0.3,0.2c-0.6,0.3-0.9,0.5-0.9,0.7c0,0.2,0.3,1,0.9,2.5l0.7,1.6l1.6-0.7
		c2.8-1.3,4.7-1,5.6,1c0.5,1.1,0.4,2.1-0.1,3.2c-0.6,1.1-1.5,1.9-2.7,2.5c-0.1,0.1-0.4,0.2-0.6,0.3c-0.5,0.2-1,0.4-1.3,0.5
		c-0.3,0.1-0.7,0.3-1.1,0.5c-0.3,0.2-0.5,0.3-0.7,0.3L164.1,200.7z M144.5,199.2l0.4,2.4c0.1,0.4,0.2,0.9,0.3,1.5
		c0.2,0.8,0.3,1.2,0.3,1.3c0,0.1,0.1,0.2,0.3,0.2c0.2,0.1,0.4,0.1,0.7,0l0.6-0.1l0.1,0.5c-0.8,0.1-1.5,0.2-2.2,0.3
		c-0.7,0.1-1.6,0.3-2.9,0.5l-0.1-0.5l0.5-0.1c0.6-0.1,0.9-0.3,1-0.5c0.1-0.2,0-1.2-0.3-2.8l-0.9-5.2c-0.2-1.5-0.4-2.3-0.6-2.5
		c-0.1-0.2-0.5-0.2-1-0.1l-0.6,0.1l-0.1-0.5c1-0.1,1.8-0.2,2.7-0.4c0.8-0.1,1.6-0.3,2.4-0.4l0.1,0.5l-0.4,0.1
		c-0.5,0.1-0.9,0.2-1,0.3c-0.1,0.1-0.2,0.3-0.2,0.5c0,0.3,0.1,1.1,0.3,2.3l0.3,2c1-0.1,2.3-0.3,3.9-0.6c1.3-0.2,2.4-0.4,3.3-0.6
		l-0.3-1.7c-0.2-1-0.3-1.8-0.5-2.5c-0.1-0.2-0.2-0.4-0.3-0.5c-0.1-0.1-0.4-0.1-0.8,0l-0.6,0.1l-0.1-0.5c0.9-0.1,1.7-0.2,2.5-0.4
		c0.9-0.1,1.7-0.3,2.6-0.5l0.1,0.5l-0.7,0.1c-0.4,0.1-0.7,0.2-0.8,0.3c-0.1,0.1-0.2,0.3-0.1,0.6c0,0.3,0.1,1.1,0.4,2.5l0.8,4.8
		c0.3,1.8,0.5,2.7,0.6,2.9c0.1,0.2,0.5,0.2,1,0.2l0.7-0.1l0.1,0.5c-0.8,0.1-1.6,0.2-2.5,0.4c-1,0.2-1.9,0.3-2.7,0.5l-0.1-0.5
		l0.6-0.1c0.4-0.1,0.7-0.2,0.8-0.3c0.1-0.1,0.2-0.3,0.1-0.6c0-0.6-0.1-1.5-0.3-2.6l-0.4-2.2c-0.8,0.1-1.9,0.3-3.1,0.5
		C146.8,198.8,145.4,199.1,144.5,199.2z M128,205.1c0.5,0.1,0.9,0.1,1.3,0.1c1,0,1.8-0.3,2.4-0.8c0.6-0.5,0.9-1.3,0.9-2.2
		c0-0.5-0.1-0.9-0.2-1.3c-0.2-0.4-0.5-0.8-0.9-1c-0.5-0.3-1.2-0.4-2.3-0.4c-0.4,0-0.7,0-1.1,0l0,3.1C128,203.8,128,204.6,128,205.1z
		 M128.1,194.4c-0.1,0.8-0.1,1.9-0.1,3.2l0,1.1l1.8,0c3.1,0,4.6,1.1,4.6,3.2c0,1.2-0.5,2.1-1.5,2.9c-1,0.8-2.1,1.1-3.5,1.1
		c-0.2,0-0.4,0-0.7,0c-0.6,0-1,0-1.4-0.1c-0.3,0-0.7,0-1.2,0c-0.3,0-0.6,0-0.7,0l0-0.4c0.4-0.2,0.6-0.3,0.6-0.4
		c0.1-0.1,0.1-0.4,0.1-0.8c0-0.5,0.1-1.1,0.1-2l0.1-5.4c0-1.2,0-2-0.1-2.3c-0.1-0.3-0.4-0.5-1-0.5l-0.6,0l0-0.5l0.7,0
		c0.2,0,0.4,0,0.8,0c0.5,0,0.8,0,1.1,0c0.3,0,0.7,0,1.3,0c1.6,0,2.9,0,3.6,0c0.6,0,1,0,1.5,0.1c-0.2,0.6-0.3,1.4-0.3,2.6l-0.6,0
		c0-0.6-0.1-1.2-0.2-1.6c-0.7-0.2-1.6-0.3-2.4-0.3C129.5,194.3,128.8,194.4,128.1,194.4z M112.5,197.2l-0.6,2.1l-0.3,1.2
		c-0.2,0.7-0.4,1.3-0.5,1.6c0.8,0.3,1.7,0.6,2.6,0.9c0.6,0.2,1.2,0.3,1.6,0.4c0.3,0,0.6,0.1,0.9,0c0.3-0.5,0.6-1,1-1.7l0.5,0.2
		c-0.5,1.2-0.8,2-0.9,2.4l-0.1,0.4c-0.7-0.1-1.3-0.3-1.9-0.5l-1.3-0.4c-1.4-0.5-2.5-0.8-3.2-1c-0.7-0.2-1.5-0.4-2.6-0.7l0.2-0.5
		l0.3,0.1c0.5,0.1,0.8,0.2,1,0.1c0.2-0.1,0.3-0.3,0.4-0.6c0.1-0.3,0.4-1.1,0.7-2.3l1.3-4.6c0.2-0.8,0.4-1.4,0.5-1.9
		c0.1-0.5,0.1-0.8,0.1-0.9c0-0.1-0.1-0.2-0.1-0.3c-0.1-0.1-0.3-0.2-0.7-0.3l-0.6-0.3l0.2-0.5l0.9,0.3l0.9,0.3
		c0.5,0.2,0.9,0.3,1.1,0.4l3.2,0.9l1.5,0.4c0.5,0.1,1,0.3,1.6,0.5c-0.4,0.6-0.8,1.4-1.1,2.5l-0.5-0.2c0.2-0.6,0.3-1.1,0.4-1.6
		c-0.6-0.4-1.4-0.8-2.3-1.1c-0.8-0.2-1.6-0.4-2.4-0.6c-0.1,0.5-0.3,1-0.5,1.6l-0.4,1.3l-0.5,1.7c0.6,0.2,1,0.4,1.5,0.5
		c1.3,0.4,2.1,0.6,2.3,0.5c0.2,0,0.4-0.3,0.5-0.8l0.2-0.6l0.5,0.2c-0.3,0.8-0.5,1.5-0.7,2c-0.2,0.5-0.3,1.2-0.5,1.9l-0.5-0.2
		l0.1-0.5c0.2-0.5,0.1-0.9,0-1.1c-0.2-0.2-0.9-0.5-2.2-0.8C113.5,197.5,113,197.4,112.5,197.2z M99.7,193.2c-1.4-0.3-2.5-0.6-3.3-1
		c-0.7-0.4-1.2-0.8-1.7-1.3c-0.5-0.5-0.8-1.1-0.9-1.8c-0.2-0.7,0-1.6,0.6-2.6c0.6-1.2,1-2,1.1-2.3c0.1-0.3-0.1-0.6-0.7-0.9l-0.6-0.3
		l0.3-0.5c0.8,0.5,1.5,0.9,2.2,1.2c0.9,0.5,1.7,0.9,2.4,1.2l-0.3,0.5l-0.3-0.2c-0.5-0.3-0.9-0.4-1.1-0.3c-0.2,0.1-0.4,0.4-0.7,0.9
		c-0.7,1.4-1.1,2.3-1.3,2.7c-0.1,0.5-0.1,1,0.3,1.6c0.3,0.6,0.8,1.1,1.5,1.4c0.7,0.4,1.6,0.7,2.9,1c1.5-2.9,2.3-4.5,2.4-4.8
		c0-0.3-0.2-0.6-0.7-0.8l-0.6-0.3l0.3-0.5c0.7,0.4,1.4,0.8,2.3,1.3c0.7,0.4,1.5,0.8,2.3,1.2l-0.3,0.5l-0.6-0.3
		c-0.6-0.3-0.9-0.3-1.1-0.1c-0.2,0.2-0.6,1-1.4,2.4l-2.2,4.3c-0.8,1.5-1.2,2.4-1.3,2.7c0,0.3,0.2,0.5,0.7,0.8l0.6,0.3l-0.3,0.5
		c-0.6-0.4-1.4-0.8-2.2-1.2c-1-0.5-1.9-1-2.6-1.3l0.3-0.5l0.5,0.3c0.3,0.2,0.6,0.3,0.8,0.3c0.2,0,0.4-0.1,0.5-0.1
		c0.1-0.1,0.3-0.4,0.7-1.1c0.4-0.6,0.6-1.1,0.7-1.3L99.7,193.2z M77.9,185.4c0.3-0.8,0.6-1.6,0.8-2.2l3-9.6c0.1-0.2-0.1-0.5-0.5-0.8
		l-0.3-0.2l0.4-0.4c0.6,0.5,1.2,1.1,1.8,1.6c0.5,0.4,1.1,0.9,1.8,1.5l-0.4,0.4l-0.7-0.6c-0.2-0.2-0.4-0.3-0.5-0.3
		c-0.1,0-0.2,0-0.3,0.1c-0.2,0.2-0.6,1.3-1.2,3.2l-1.9,6l5.1-2.9c1.9-1,2.9-1.7,3.1-1.9c0.1-0.1,0.1-0.2,0.1-0.3
		c0-0.1-0.2-0.3-0.5-0.6l-0.5-0.5l0.4-0.4c0.5,0.5,1,0.9,1.5,1.3c0.4,0.3,0.9,0.7,1.5,1.2l-0.4,0.4l-0.3-0.2
		c-0.2-0.2-0.4-0.3-0.7-0.2c-0.2,0-0.7,0.2-1.3,0.6l-6.8,3.7l-4,2.3c-0.7,0.4-1.4,0.6-2.1,0.5c-0.6-0.1-1.2-0.4-1.7-0.8
		c-0.1,0-0.1-0.1-0.2-0.2l0.9-1.1l0.2,0c0.1,0.3,0.3,0.6,0.5,0.8c0.3,0.2,0.6,0.4,0.9,0.4C76.2,186.4,76.8,186.1,77.9,185.4z"/>
	
		<ellipse transform="matrix(0.9935 -0.1137 0.1137 0.9935 -12.6081 16.0184)" class="st2" cx="134.1" cy="118.6" rx="110.6" ry="110.6"/>
	<path class="st3" d="M229.5,177.1C181.3,161.6,200.2,200.9,229.5,177.1C273.6,141.3,273.4,193.6,229.5,177.1z"/>
	<path class="st3" d="M243.3,212.5c-13-6-14.9-16.9-14.4-31.4c-11.1,18.1,0.5,28.3-9.5,49.4"/>
	<path class="st4" d="M12.1,89.9c5.7,3.9,33.9,23.4,35.4,28.1c-3.1-0.2-6.2-3.1-9.4-5.5l-27.7-21C-5,99.1-1.4,74.9,8.9,81.5
		C13.2,84.2,12.1,87.2,12.1,89.9 M4.8,90.4c4.7-0.9,6.7-5.2,2-7.1C3.6,81.9-0.1,86.3,4.8,90.4z"/>
	<path class="st4" d="M225.1,24.3c-3.2,6.1-18.9,36.5-18.1,41.5c2.6-1.6,4.1-5.6,5.7-9.3l14.6-31.5c17.3-0.6,2.7-20.2-3.2-9.6
		C221.5,19.8,223.9,21.9,225.1,24.3 M231.8,21.3c-4.6,1.4-8.3-1.4-5.1-5.3C228.9,13.2,234.2,15.4,231.8,21.3z"/>
</g>
</svg>
